<svg xmlns="http://www.w3.org/2000/svg" width="1em" height="1em" viewBox="0 0 64 64"><g fill-rule="evenodd" stroke-linejoin="round" stroke-miterlimit="1.414"><defs><linearGradient id="SVGwMKw3bzO" x1=".025" x2="1" y1=".079" y2="0" gradientTransform="rotate(90 177.831 370.053)scale(473.895)" gradientUnits="userSpaceOnUse"><stop offset="0" stop-color="#ec2802"/><stop offset="1" stop-color="#fcb200"/></linearGradient><linearGradient id="SVG4v45ZbHi" x1="19.063" x2="19" y1="0" y2="43.25" gradientTransform="matrix(1.40188 0 0 1.34821 21.364 -32.96)" gradientUnits="userSpaceOnUse" href="#SVGwMKw3bzO"/><clipPath id="SVG13U2XcBB" clipPathUnits="userSpaceOnUse"><path fill="none" stroke="#000" stroke-linejoin="miter" stroke-width=".038" d="M14.813 26.75L19 15.945l4.187 10.805L19 43.25Z"/></clipPath><filter id="SVG2JncedGT" width="1.192" height="1.148" x="-.096" y="-.074"><feGaussianBlur stdDeviation="1.002"/></filter></defs><path fill="#069efe" d="m27.566 38.792l-1.39 3.37C29.912 53.674 29.912 53.674 32 63.716c2.087-10.042 2.087-10.042 5.825-21.552l-1.391-3.37L32 28.048Z"/><path fill="url(#SVG4v45ZbHi)" d="M43.093-32.96h9.814l21.729 53.928h-9.112L48-20.221L30.476 20.968h-9.112z" transform="translate(-16 35.82)"/><path fill="#fff" d="M19 32.395L31.5 0L6.5.133Z" clip-path="url(#SVG13U2XcBB)" filter="url(#SVG2JncedGT)" transform="matrix(1.3912 0 0 1.33794 5.567 6.716)"/></g></svg>